<svg width="1200" height="675" viewBox="0 0 1200 675" fill="none" xmlns="http://www.w3.org/2000/svg">
  <rect width="1200" height="675" fill="#0A0A0A"/>
  <rect x="30" y="30" width="1140" height="615" rx="24" fill="#121212" stroke="#262626" stroke-width="2"/>
  <g opacity="0.2" stroke="#404040">
    <line x1="0" y1="120" x2="1200" y2="120"/>
    <line x1="0" y1="240" x2="1200" y2="240"/>
    <line x1="0" y1="360" x2="1200" y2="360"/>
    <line x1="0" y1="480" x2="1200" y2="480"/>
    <line x1="200" y1="0" x2="200" y2="675"/>
    <line x1="400" y1="0" x2="400" y2="675"/>
    <line x1="600" y1="0" x2="600" y2="675"/>
    <line x1="800" y1="0" x2="800" y2="675"/>
    <line x1="1000" y1="0" x2="1000" y2="675"/>
  </g>
  <g transform="translate(600 340)">
    <circle cx="0" cy="0" r="38" fill="#D4A017"/>
    <circle cx="0" cy="0" r="18" fill="#0A0A0A"/>
    <line x1="-220" y1="0" x2="220" y2="0" stroke="#D4A017" stroke-width="16" stroke-linecap="round"/>
    <line x1="0" y1="-170" x2="0" y2="170" stroke="#D4A017" stroke-width="16" stroke-linecap="round"/>
    <circle cx="-240" cy="0" r="44" fill="#1E1E1E" stroke="#D4A017" stroke-width="8"/>
    <circle cx="240" cy="0" r="44" fill="#1E1E1E" stroke="#D4A017" stroke-width="8"/>
    <circle cx="0" cy="-190" r="44" fill="#1E1E1E" stroke="#D4A017" stroke-width="8"/>
    <circle cx="0" cy="190" r="44" fill="#1E1E1E" stroke="#D4A017" stroke-width="8"/>
  </g>
  <text x="70" y="95" fill="#D4A017" font-family="Inter, Arial, sans-serif" font-size="40" font-weight="700">M1-A Quadcopter</text>
  <text x="70" y="135" fill="#A3A3A3" font-family="Inter, Arial, sans-serif" font-size="22">Autonomous aerial platform</text>
</svg>
